<?xml version="1.0" encoding="utf-8"?>
<!-- Generator: Adobe Illustrator 19.2.0, SVG Export Plug-In . SVG Version: 6.00 Build 0)  -->
<svg version="1.1" id="Layer_1" xmlns:sketch="http://www.bohemiancoding.com/sketch/ns"
	 xmlns="http://www.w3.org/2000/svg" xmlns:xlink="http://www.w3.org/1999/xlink" x="0px" y="0px" viewBox="0 0 22.5 22.5"
	 style="enable-background:new 0 0 22.5 22.5;" xml:space="preserve">
<style type="text/css">
	.st0{fill:#4285F4;}
	.st1{fill:#34A853;}
	.st2{fill:#FBBC05;}
	.st3{fill:#EA4335;}
	.st4{fill:none;}
</style>
<title>btn_google_light_normal_ios</title>
<desc>Created with Sketch.</desc>
<g id="Google-Button" sketch:type="MSPage">
	<g id="_x39_-PATCH" transform="translate(-608.000000, -160.000000)" sketch:type="MSArtboardGroup">
	</g>
	<g id="btn_google_light_normal" transform="translate(-1.000000, -1.000000)" sketch:type="MSArtboardGroup">
		<g id="logo_googleg_48dp" transform="translate(15.000000, 15.000000)" sketch:type="MSLayerGroup">
			<path id="Shape" sketch:type="MSShapeGroup" class="st0" d="M5.9-2.5c0-0.6-0.1-1.3-0.2-1.8h-8.5v3.5h4.8
				C1.9,0.2,1.3,1.2,0.3,1.8v2.3h2.9C4.9,2.5,5.9,0.2,5.9-2.5L5.9-2.5z"/>
			<path id="Shape_1_" sketch:type="MSShapeGroup" class="st1" d="M-2.7,6.3c2.4,0,4.5-0.8,6-2.2L0.3,1.8c-0.8,0.5-1.8,0.9-3,0.9
				c-2.3,0-4.3-1.6-5-3.7h-3v2.3C-9.3,4.3-6.2,6.3-2.7,6.3L-2.7,6.3z"/>
			<path id="Shape_2_" sketch:type="MSShapeGroup" class="st2" d="M-7.8-1C-7.9-1.6-8-2.1-8-2.7s0.1-1.2,0.3-1.7v-2.3h-3
				c-0.6,1.2-1,2.6-1,4s0.3,2.8,1,4L-7.8-1L-7.8-1z"/>
			<path id="Shape_3_" sketch:type="MSShapeGroup" class="st3" d="M-2.7-8.1c1.3,0,2.5,0.5,3.4,1.3l2.6-2.6c-1.6-1.5-3.6-2.3-6-2.3
				c-3.5,0-6.6,2-8,5l3,2.3C-7.1-6.6-5.1-8.1-2.7-8.1L-2.7-8.1z"/>
			<path id="Shape_4_" sketch:type="MSShapeGroup" class="st4" d="M-11.7-11.7h18v18h-18V-11.7z"/>
		</g>
		<g id="handles_square" sketch:type="MSLayerGroup">
		</g>
	</g>
</g>
</svg>
