<svg id="Layer_1" data-name="Layer 1" xmlns="http://www.w3.org/2000/svg" viewBox="0 0 240 50"><defs><style>.cls-1{fill:#fff;}</style></defs><title>toolbar_green</title><g id="line1"><path class="cls-1" d="M46.93,24.57a4.24,4.24,0,0,0-.42-1.89,3.69,3.69,0,0,0-1.08-1.35,4.45,4.45,0,0,0-2.75-1H39.26a1.33,1.33,0,0,0-1.25.43,1.29,1.29,0,0,0-.15.43,4.66,4.66,0,0,0,0,.55v8.91a2.68,2.68,0,0,0,.1.83,1.2,1.2,0,0,0,1.32.59,1.33,1.33,0,0,0,1.25-.43,1.29,1.29,0,0,0,.15-0.43,4.66,4.66,0,0,0,0-.55V28.83h2a4.47,4.47,0,0,0,2.76-1,3.7,3.7,0,0,0,1.08-1.34A4.19,4.19,0,0,0,46.93,24.57Zm-3.29,1.06a1.56,1.56,0,0,1-.95.35h-2V23.14h2a1.55,1.55,0,0,1,1,.36,1.27,1.27,0,0,1,.47,1.07A1.25,1.25,0,0,1,43.64,25.63Z"/><path class="cls-1" d="M62.15,30.08q-0.74-1.67-1.09-2.52a4,4,0,0,0,1.2-3,4.24,4.24,0,0,0-.42-1.89,3.77,3.77,0,0,0-1.06-1.35,4.45,4.45,0,0,0-2.75-1H54.57a1.33,1.33,0,0,0-1.25.43,1.29,1.29,0,0,0-.15.43,4.66,4.66,0,0,0,0,.55v8.91a2.68,2.68,0,0,0,.1.83,1.2,1.2,0,0,0,1.32.59,1.33,1.33,0,0,0,1.25-.43A1.29,1.29,0,0,0,56,31.2a4.66,4.66,0,0,0,0-.55V28.83h2l0.5,0q1.09,2.6,1.25,2.91a1.15,1.15,0,0,0,.3.31,0.83,0.83,0,0,0,.51.15,2.21,2.21,0,0,0,.83-0.22,1.27,1.27,0,0,0,1-1A2.55,2.55,0,0,0,62.15,30.08ZM56,26V23.14h2a1.55,1.55,0,0,1,1,.36,1.27,1.27,0,0,1,.47,1.07A1.25,1.25,0,0,1,59,25.63,1.54,1.54,0,0,1,58,26H56Z"/><path class="cls-1" d="M74,20.16a5.39,5.39,0,0,0-2.15.45A6,6,0,0,0,70,21.84a5.79,5.79,0,0,0-1.28,2,6.47,6.47,0,0,0-.48,2.5,5.84,5.84,0,0,0,1.71,4.21,5.56,5.56,0,0,0,4.15,1.77,5.4,5.4,0,0,0,4.11-1.79,6.13,6.13,0,0,0,1.67-4.34A5.92,5.92,0,0,0,74,20.16Zm-2,8.37a3.39,3.39,0,0,1,0-4.64A2.88,2.88,0,0,1,74,23a2.92,2.92,0,0,1,2.06.88A3.09,3.09,0,0,1,77,26.23a3.06,3.06,0,0,1-.92,2.33A2.85,2.85,0,0,1,72,28.53Z"/><path class="cls-1" d="M87.48,20.29a1.33,1.33,0,0,0-1.25.43,1.29,1.29,0,0,0-.15.42,4.64,4.64,0,0,0,0,.56v8.93a2.13,2.13,0,0,0,.19,1,1.36,1.36,0,0,0,1.22.4h2.94a5.66,5.66,0,0,0,4.18-1.75,5.77,5.77,0,0,0,1.73-4.2A5.47,5.47,0,0,0,94.55,22a5.76,5.76,0,0,0-4.09-1.68Zm5.06,8.07a3,3,0,0,1-2.09.86H88.9V23.14h1.54a3,3,0,0,1,2.13.88,2.9,2.9,0,0,1,.91,2.18A2.81,2.81,0,0,1,92.54,28.35Z"/><path class="cls-1" d="M110.68,20.38a0.82,0.82,0,0,0-.47.35,1.77,1.77,0,0,0-.16.88v4.91a3.53,3.53,0,0,1-.58,2,2,2,0,0,1-1.75.87,2.27,2.27,0,0,1-1.14-.27,1.8,1.8,0,0,1-.72-0.72,3.83,3.83,0,0,1-.48-1.86V21.73a2.21,2.21,0,0,0-.19-1,0.64,0.64,0,0,0-.42-0.34,3.53,3.53,0,0,0-1.64,0,0.7,0.7,0,0,0-.43.34,1.29,1.29,0,0,0-.15.43,4.85,4.85,0,0,0,0,.57v4.83a6.18,6.18,0,0,0,1.3,3.85,4.64,4.64,0,0,0,1.63,1.35,4.83,4.83,0,0,0,2.23.51,4.94,4.94,0,0,0,2.24-.51,4.78,4.78,0,0,0,1.65-1.32,6.22,6.22,0,0,0,1.32-3.85V21.73a2.68,2.68,0,0,0-.1-0.83,0.63,0.63,0,0,0-.21-0.34,1.27,1.27,0,0,0-.42-0.19,2.68,2.68,0,0,0-.73-0.08A2.57,2.57,0,0,0,110.68,20.38Z"/><path class="cls-1" d="M126.71,29a2.45,2.45,0,0,1-.63.26,3.35,3.35,0,0,1-.94.13,3.44,3.44,0,0,1-2-.71,2.78,2.78,0,0,1-.82-1,3.45,3.45,0,0,1,0-2.91,2.7,2.7,0,0,1,.8-1,3.51,3.51,0,0,1,2.06-.72,2.77,2.77,0,0,1,1.8.55,1.7,1.7,0,0,0,.82.35,1.66,1.66,0,0,0,1.12-.87,1.54,1.54,0,0,0,.34-0.89,1,1,0,0,0-.42-0.76l-0.45-.29L128,20.9a6.12,6.12,0,0,0-2.71-.71,6.5,6.5,0,0,0-3.16.87,6.11,6.11,0,0,0-1.49,1.12,5.2,5.2,0,0,0-1.07,1.69,5.94,5.94,0,0,0-.42,2.27,6.21,6.21,0,0,0,.43,2.32,5.32,5.32,0,0,0,1.08,1.75,6.64,6.64,0,0,0,1.49,1.16,6.53,6.53,0,0,0,1.61.67,6.16,6.16,0,0,0,1.54.2,5.27,5.27,0,0,0,1.58-.26,5.84,5.84,0,0,0,1.08-.42l0.55-.34a2.53,2.53,0,0,0,.51-0.4,0.78,0.78,0,0,0,.22-0.56,1.87,1.87,0,0,0-.35-0.9,1.55,1.55,0,0,0-1.08-.9,1.91,1.91,0,0,0-.77.32Z"/><path class="cls-1" d="M138.26,29.23V27.61h3.15a2.68,2.68,0,0,0,.83-0.1,1.2,1.2,0,0,0,.61-1.32,1.33,1.33,0,0,0-.43-1.25,1.29,1.29,0,0,0-.43-0.15,4.66,4.66,0,0,0-.55,0h-3.18V23.14h4.93A2.68,2.68,0,0,0,144,23a1.2,1.2,0,0,0,.59-1.32,1.33,1.33,0,0,0-.43-1.25,1.29,1.29,0,0,0-.43-0.15,4.66,4.66,0,0,0-.55,0h-6.33a1.68,1.68,0,0,0-1.16.3,1.56,1.56,0,0,0-.31,1.12v8.93a2.53,2.53,0,0,0,.1.82,1.2,1.2,0,0,0,1.32.61h6.36A2.68,2.68,0,0,0,144,32a1.2,1.2,0,0,0,.59-1.32,1.33,1.33,0,0,0-.43-1.25,1.29,1.29,0,0,0-.43-0.15,4.66,4.66,0,0,0-.55,0h-4.95Z"/><path class="cls-1" d="M159.84,30.08q-0.74-1.67-1.09-2.52a4,4,0,0,0,1.2-3,4.24,4.24,0,0,0-.42-1.89,3.77,3.77,0,0,0-1.06-1.35,4.45,4.45,0,0,0-2.75-1h-3.47a1.33,1.33,0,0,0-1.25.43,1.29,1.29,0,0,0-.15.43,4.66,4.66,0,0,0,0,.55v8.91a2.68,2.68,0,0,0,.1.83,1.2,1.2,0,0,0,1.32.59,1.33,1.33,0,0,0,1.25-.43,1.29,1.29,0,0,0,.15-0.43,4.67,4.67,0,0,0,0-.55V28.83h2l0.5,0q1.09,2.6,1.25,2.91a1.15,1.15,0,0,0,.3.31,0.83,0.83,0,0,0,.51.15,2.21,2.21,0,0,0,.83-0.22,1.27,1.27,0,0,0,1-1A2.55,2.55,0,0,0,159.84,30.08ZM153.68,26V23.14h2a1.55,1.55,0,0,1,1,.36,1.27,1.27,0,0,1,.47,1.07,1.25,1.25,0,0,1-.47,1.06,1.54,1.54,0,0,1-.93.35h-2.06ZM37.19,32.07"/><path class="cls-1" d="M182.72,29a2.45,2.45,0,0,1-.63.26,3.35,3.35,0,0,1-.94.13,3.44,3.44,0,0,1-2-.71,2.78,2.78,0,0,1-.82-1,3.45,3.45,0,0,1,0-2.91,2.7,2.7,0,0,1,.8-1,3.51,3.51,0,0,1,2.06-.72,2.77,2.77,0,0,1,1.8.55,1.7,1.7,0,0,0,.82.35,1.66,1.66,0,0,0,1.12-.87,1.54,1.54,0,0,0,.34-0.89,1,1,0,0,0-.42-0.76l-0.45-.29L184,20.9a6.12,6.12,0,0,0-2.71-.71,6.5,6.5,0,0,0-3.16.87,6.11,6.11,0,0,0-1.49,1.12,5.2,5.2,0,0,0-1.07,1.69,5.94,5.94,0,0,0-.42,2.27,6.21,6.21,0,0,0,.43,2.32,5.32,5.32,0,0,0,1.08,1.75,6.64,6.64,0,0,0,1.49,1.16,6.53,6.53,0,0,0,1.61.67,6.16,6.16,0,0,0,1.54.2,5.27,5.27,0,0,0,1.58-.26,5.84,5.84,0,0,0,1.08-.42l0.55-.34a2.53,2.53,0,0,0,.51-0.4,0.78,0.78,0,0,0,.22-0.56,1.87,1.87,0,0,0-.35-0.9,1.55,1.55,0,0,0-1.08-.9,1.91,1.91,0,0,0-.77.32Z"/><path class="cls-1" d="M199.14,20.4a0.7,0.7,0,0,0-.43.34,1.29,1.29,0,0,0-.15.43,4.66,4.66,0,0,0,0,.55V25h-4.26V21.73a3.19,3.19,0,0,0-.08-0.83,1.24,1.24,0,0,0-1.33-.59,1.33,1.33,0,0,0-1.25.43,1.29,1.29,0,0,0-.15.43,4.67,4.67,0,0,0,0,.55v8.91a2.68,2.68,0,0,0,.1.83,1.2,1.2,0,0,0,1.32.59,1.33,1.33,0,0,0,1.25-.43,1.29,1.29,0,0,0,.15-0.43,4.66,4.66,0,0,0,0-.55V27.37h4.26v3.26a2.68,2.68,0,0,0,.1.83,1.2,1.2,0,0,0,1.32.59,1.33,1.33,0,0,0,1.25-.43,1.29,1.29,0,0,0,.15-0.43,4.66,4.66,0,0,0,0-.55V21.73a3.19,3.19,0,0,0-.08-0.83,0.72,0.72,0,0,0-.22-0.32,1.27,1.27,0,0,0-.42-0.19,2.71,2.71,0,0,0-.74-0.08A2.6,2.6,0,0,0,199.14,20.4Z"/><path class="cls-1" d="M214.62,21.14a1.36,1.36,0,0,0-1.28-.83,1.42,1.42,0,0,0-.76.22,1.4,1.4,0,0,0-.54.59l-4.34,9a2.09,2.09,0,0,0-.27.82,1.3,1.3,0,0,0,.93,1,2.11,2.11,0,0,0,.86.27,0.83,0.83,0,0,0,.51-0.15,1.14,1.14,0,0,0,.29-0.3q0.09-.14.25-0.47l0.83-1.73h4.45l0.83,1.73,0.25,0.48a1,1,0,0,0,.29.31,0.86,0.86,0,0,0,.51.14A2.11,2.11,0,0,0,218.3,32a1.33,1.33,0,0,0,.93-1A2.1,2.1,0,0,0,219,30.1ZM213.32,25l1.08,2.2h-2.14Z"/><path class="cls-1" d="M226,20.29a1.87,1.87,0,0,0-.82.14,0.55,0.55,0,0,0-.27.35,2.24,2.24,0,0,0-.08.67,2.32,2.32,0,0,0,.08.67,0.61,0.61,0,0,0,.32.38,1.78,1.78,0,0,0,.75.12h3.08v8.06a4.66,4.66,0,0,0,0,.55,1.3,1.3,0,0,0,.14.42,0.68,0.68,0,0,0,.42.33,2.65,2.65,0,0,0,.79.1,2.74,2.74,0,0,0,.8-0.1,0.68,0.68,0,0,0,.43-0.33,1.3,1.3,0,0,0,.14-0.41,4.45,4.45,0,0,0,0-.55V22.61H235a1.87,1.87,0,0,0,.82-0.14,0.55,0.55,0,0,0,.27-0.35,2.24,2.24,0,0,0,.08-0.67,2.32,2.32,0,0,0-.08-0.67,0.61,0.61,0,0,0-.32-0.38,1.78,1.78,0,0,0-.75-0.12H226Z"/></g><g id="logomark"><path class="cls-1" d="M16.64,12.89A12.11,12.11,0,0,0,8.08,33.56L4.54,37.11H16.64A12.11,12.11,0,1,0,16.64,12.89Zm6,13.24a2.16,2.16,0,0,0-.25-3A13.6,13.6,0,0,0,17,20.62V29c0,0.78-1,1.71-2.53,2.13s-3.11.17-3.35-.64,0.88-1.86,2.5-2.32a4,4,0,0,1,2.82.06V17.58H17c1.52,2.48,6.64,4.69,6.64,6.89A2.15,2.15,0,0,1,22.64,26.13Z"/></g></svg>